<svg width="32" height="32" viewBox="0 0 32 32" fill="none" xmlns="http://www.w3.org/2000/svg">
<rect width="32" height="32" rx="2" fill="white"/>
<path d="M10.7619 26.8511V9.39657H13.3528V12.0329H13.5346C13.8528 11.1693 14.4286 10.4685 15.2619 9.93066C16.0953 9.39279 17.0346 9.12385 18.0801 9.12385C18.2771 9.12385 18.5233 9.12763 18.8187 9.13521C19.1142 9.14279 19.3377 9.15415 19.4892 9.1693V11.8966C19.3983 11.8738 19.1899 11.8398 18.8642 11.7943C18.546 11.7413 18.2089 11.7148 17.8528 11.7148C17.0043 11.7148 16.2468 11.8928 15.5801 12.2488C14.921 12.5973 14.3983 13.0822 14.0119 13.7034C13.6331 14.317 13.4437 15.0178 13.4437 15.8057V26.8511H10.7619Z" fill="black"/>
<path d="M21.9886 24.4119C21.69 24.6546 21.2046 24.8599 20.5326 25.0279C19.8793 25.1959 19.3846 25.2799 19.0486 25.2799C18.7126 25.2799 18.5166 25.2799 18.4606 25.2799C17.4526 25.2612 16.7246 24.9999 16.2766 24.4959C15.8286 24.0106 15.6046 23.4599 15.6046 22.8439C15.6046 22.2279 15.8006 21.7052 16.1926 21.2759C16.5846 20.8652 17.07 20.5386 17.6486 20.2959C18.246 20.0719 18.8806 19.8106 19.5526 19.5119C20.2433 19.2132 20.878 18.9052 21.4566 18.5879C22.054 18.2892 22.5486 17.8412 22.9406 17.2439C23.3326 16.6652 23.5286 15.9372 23.5286 15.0599C23.5286 14.1826 23.2206 13.4359 22.6046 12.8199C21.9886 12.2039 21.298 11.7932 20.5326 11.5879C19.786 11.3826 18.974 11.2799 18.0966 11.2799C16.1926 11.2799 14.7646 11.6999 13.8126 12.5399L13.9806 12.7079C14.354 12.3532 14.9046 12.0639 15.6326 11.8399C16.3793 11.6159 17.098 11.5039 17.7886 11.5039C18.89 11.5039 19.7953 11.8026 20.5046 12.3999C21.2326 13.0159 21.5966 13.7719 21.5966 14.6679C21.5966 15.5826 21.326 16.3106 20.7846 16.8519C20.2433 17.4119 19.5806 17.8412 18.7966 18.1399C18.0313 18.4572 17.2566 18.7652 16.4726 19.0639C15.6886 19.3812 15.026 19.8106 14.4846 20.3519C13.9433 20.9119 13.6726 21.5559 13.6726 22.2839C13.6726 23.0119 13.8406 23.5999 14.1766 24.0479C14.5126 24.5146 14.9606 24.8412 15.5206 25.0279C16.4726 25.3452 17.4246 25.5039 18.3766 25.5039C19.982 25.5039 21.2326 25.2052 22.1286 24.6079L21.9886 24.4119Z" fill="black"/>
<circle cx="12" cy="5.60809" r="2" fill="#2824FF"/>
</svg>
